<svg width="24" height="24" viewBox="0 0 24 24" fill="none" xmlns="http://www.w3.org/2000/svg">
<g clip-path="url(#clip0_1_180)">
<path d="M17.7997 12.4005H13.604C13.4095 12.4005 13.2518 12.2428 13.2518 12.0483V11.3837C13.2518 11.2806 13.2969 11.1826 13.3754 11.1157C13.7825 10.7685 14.016 10.2628 14.016 9.72843C14.016 8.7234 13.1983 7.90572 12.1933 7.90572C11.1883 7.90572 10.3706 8.7234 10.3706 9.72843C10.3706 10.2366 10.5747 10.7083 10.9453 11.0567C11.0161 11.1232 11.0562 11.2161 11.0562 11.3133V12.0484C11.0562 12.2429 10.8986 12.4006 10.704 12.4006H6.20027C6.00575 12.4006 5.84806 12.2429 5.84806 12.0484V0.352211C5.84806 0.15769 6.00575 0 6.20027 0H17.7997C17.9942 0 18.1519 0.157643 18.1519 0.352211V3.47984H18.3651C18.8314 3.04233 19.4536 2.79418 20.0955 2.79418C21.4889 2.79418 22.6226 3.92785 22.6226 5.32131C22.6226 6.71476 21.4889 7.84844 20.0955 7.84844C19.4105 7.84844 18.7596 7.57181 18.2849 7.08415H18.1519V12.0484C18.1519 12.2429 17.9942 12.4005 17.7997 12.4005Z" fill="#FF7C48"/>
<path d="M20.0954 2.79418C19.4536 2.79418 18.8314 3.04233 18.3651 3.47984H18.1519V0.352211C18.1519 0.15769 17.9942 0 17.7997 0H12.1933V7.90572C13.1983 7.90572 14.016 8.7234 14.016 9.72843C14.016 10.2628 13.7825 10.7685 13.3754 11.1157C13.2969 11.1826 13.2517 11.2806 13.2517 11.3837V12.0483C13.2517 12.2428 13.4094 12.4005 13.604 12.4005H17.7997C17.9942 12.4005 18.1519 12.2428 18.1519 12.0483V7.0841H18.2849C18.7596 7.57176 19.4105 7.84839 20.0955 7.84839C21.4889 7.84839 22.6226 6.71472 22.6226 5.32126C22.6226 3.92781 21.4889 2.79418 20.0954 2.79418Z" fill="#FF415B"/>
<path d="M17.7997 24.0001H6.20022C6.0057 24.0001 5.84801 23.8424 5.84801 23.6479V19.611H5.71504C5.24028 20.0986 4.58944 20.3752 3.90449 20.3752C2.51104 20.3752 1.37736 19.2415 1.37736 17.8481C1.37736 16.4547 2.51104 15.321 3.90449 15.321C4.54646 15.321 5.16855 15.5691 5.63486 16.0066H5.84801V12.0484C5.84801 11.8538 6.0057 11.6961 6.20022 11.6961H10.3518V11.4588C9.91427 10.9925 9.66617 10.3704 9.66617 9.72846C9.66617 8.33501 10.7998 7.20133 12.1932 7.20133C13.5867 7.20133 14.7204 8.33501 14.7204 9.72846C14.7204 10.4134 14.4437 11.0643 13.9561 11.539V11.6962H17.7997C17.9942 11.6962 18.1519 11.8538 18.1519 12.0484V16.3589C18.1519 16.5534 17.9942 16.7111 17.7997 16.7111H17.0888C16.9916 16.7111 16.8987 16.6709 16.8321 16.6001C16.4838 16.2296 16.0121 16.0255 15.5039 16.0255C14.4989 16.0255 13.6812 16.8432 13.6812 17.8482C13.6812 18.8532 14.4989 19.6709 15.5039 19.6709C16.0383 19.6709 16.544 19.4374 16.8913 19.0303C16.9582 18.9518 17.0561 18.9066 17.1592 18.9066H17.7996C17.9942 18.9066 18.1518 19.0643 18.1518 19.2588V23.6479C18.1518 23.8424 17.9942 24.0001 17.7997 24.0001Z" fill="#8EE16A"/>
<path d="M15.5039 16.0255C16.0121 16.0255 16.4838 16.2295 16.8321 16.6001C16.8987 16.6709 16.9916 16.711 17.0888 16.711H17.7997C17.9942 16.711 18.1519 16.5534 18.1519 16.3588V12.0483C18.1519 11.8538 17.9942 11.6961 17.7997 11.6961H13.9561V11.539C14.4437 11.0642 14.7203 10.4133 14.7203 9.7284C14.7203 8.33494 13.5866 7.20127 12.1932 7.20127V24H17.7996C17.9941 24 18.1518 23.8423 18.1518 23.6477V19.2586C18.1518 19.0641 17.9941 18.9064 17.7996 18.9064H17.1592C17.0561 18.9064 16.9581 18.9516 16.8912 19.0301C16.544 19.4372 16.0383 19.6707 15.5039 19.6707C14.4989 19.6707 13.6812 18.853 13.6812 17.848C13.6812 16.8431 14.4989 16.0255 15.5039 16.0255Z" fill="#00CAB1"/>
</g>
<defs>
<clipPath id="clip0_1_180">
<rect width="23.1101" height="23.1101" fill="white" transform="scale(1.03851)"/>
</clipPath>
</defs>
</svg>
