<svg width="23" height="23" viewBox="0 0 23 23" fill="none" xmlns="http://www.w3.org/2000/svg">
<g clip-path="url(#clip0_1_198)">
<path d="M7.65796 23C4.77497 23 2.42951 20.6545 2.42951 17.7715V8.81762C2.42951 3.95555 6.38501 0 11.2471 0H11.7529C16.6149 0 20.5705 3.95555 20.5705 8.81762C20.5705 13.2794 17.2442 17.0036 12.8864 17.5627V17.7715C12.8864 20.6545 10.541 23 7.65796 23Z" fill="#FF3C3C"/>
<path d="M11.7529 0H11.5V21.3137C12.3601 20.3815 12.8864 19.1369 12.8864 17.7715V17.5627C17.2442 17.0036 20.5705 13.2794 20.5705 8.81762C20.5705 3.95555 16.6149 0 11.7529 0Z" fill="#DA0806"/>
<path d="M11.7529 2.68847H11.2471C7.86751 2.68847 5.11794 5.43809 5.11794 8.81761V17.7713C5.11794 19.1721 6.25725 20.3114 7.658 20.3114C9.0583 20.3114 10.1976 19.1721 10.1976 17.7713V14.9468H11.7528C15.1324 14.9468 17.8819 12.1972 17.8819 8.81765C17.8819 5.43813 15.1324 2.68847 11.7529 2.68847ZM11.7529 11.2213H9.52028C9.14639 11.2213 8.8429 10.9183 8.8429 10.544V8.81761C8.8429 7.49178 9.92125 6.41343 11.2471 6.41343H11.7529C13.0787 6.41343 14.157 7.49178 14.157 8.81761C14.157 10.143 13.0787 11.2213 11.7529 11.2213Z" fill="white"/>
<path d="M11.7529 2.68847H11.5V6.41348H11.7529C13.0787 6.41348 14.157 7.49183 14.157 8.81765C14.157 10.143 13.0787 11.2214 11.7529 11.2214H11.5V14.9468H11.7529C15.1324 14.9468 17.882 12.1972 17.882 8.8177C17.882 5.43818 15.1324 2.68847 11.7529 2.68847Z" fill="#DCE1EB"/>
</g>
<defs>
<clipPath id="clip0_1_198">
<rect width="22.3132" height="22.3132" fill="white" transform="scale(1.03078)"/>
</clipPath>
</defs>
</svg>
