<svg width="93" height="281" viewBox="0 0 93 281" fill="none" xmlns="http://www.w3.org/2000/svg">
<rect x="67.0568" y="255.455" width="25.5455" height="25.5455" rx="4.78141" fill="#F3F6F9"/>
<path d="M76.2372 265.832V273.017C76.2372 273.678 76.7733 274.214 77.4347 274.214H82.2244C82.8858 274.214 83.4219 273.678 83.4219 273.017V265.832H76.2372Z" fill="#3699FF"/>
<path opacity="0.3" fill-rule="evenodd" clip-rule="evenodd" d="M81.027 263.737V263.637C81.027 263.196 80.6696 262.839 80.2287 262.839H79.4304C78.9895 262.839 78.6321 263.196 78.6321 263.637V263.737H76.0377C75.8172 263.737 75.6385 263.916 75.6385 264.136V264.236C75.6385 264.456 75.8172 264.635 76.0377 264.635H83.6215C83.8419 264.635 84.0206 264.456 84.0206 264.236V264.136C84.0206 263.916 83.8419 263.737 83.6215 263.737H81.027Z" fill="#3699FF"/>
<rect x="33.5284" y="255.455" width="25.5455" height="25.5455" rx="4.78141" fill="#F3F6F9"/>
<path d="M51.2012 264.225C51.6622 264.686 51.6697 265.431 51.2182 265.901L46.894 270.404C46.6742 270.633 46.3726 270.765 46.0554 270.772L44.239 270.81L44.2773 268.982C44.2839 268.672 44.4104 268.376 44.6302 268.158L49.0504 263.763C49.5184 263.297 50.2747 263.298 50.7414 263.765L51.2012 264.225Z" fill="#3699FF"/>
<path opacity="0.3" d="M46.7802 262.905C47.0741 262.905 47.3124 263.144 47.3124 263.437C47.3124 263.731 47.0741 263.97 46.7802 263.97H43.108C42.5202 263.97 42.0436 264.446 42.0436 265.034V271.42C42.0436 272.008 42.5202 272.485 43.108 272.485H49.4944C50.0822 272.485 50.5588 272.008 50.5588 271.42V268.759C50.5588 268.466 50.7971 268.227 51.091 268.227C51.3849 268.227 51.6232 268.466 51.6232 268.759V271.42C51.6232 272.596 50.6701 273.549 49.4944 273.549H43.108C41.9323 273.549 40.9792 272.596 40.9792 271.42V265.034C40.9792 263.858 41.9323 262.905 43.108 262.905H46.7802Z" fill="#3699FF"/>
<rect y="255.455" width="25.5455" height="25.5455" rx="4.78141" fill="#F3F6F9"/>
<path fill-rule="evenodd" clip-rule="evenodd" d="M9.77912 262.839C8.45646 262.839 7.38424 263.911 7.38424 265.234C7.38424 266.556 8.45647 267.629 9.77912 267.629H15.7663C17.089 267.629 18.1612 266.556 18.1612 265.234C18.1612 263.911 17.089 262.839 15.7663 262.839H9.77912ZM10.9766 265.234C10.9766 265.895 10.4405 266.431 9.77914 266.431C9.11781 266.431 8.5817 265.895 8.5817 265.234C8.5817 264.572 9.11781 264.036 9.77914 264.036C10.4405 264.036 10.9766 264.572 10.9766 265.234Z" fill="#3699FF"/>
<path opacity="0.3" fill-rule="evenodd" clip-rule="evenodd" d="M9.77912 268.826C8.45646 268.826 7.38424 269.898 7.38424 271.221C7.38424 272.544 8.45647 273.616 9.77912 273.616H15.7663C17.089 273.616 18.1612 272.544 18.1612 271.221C18.1612 269.898 17.089 268.826 15.7663 268.826H9.77912ZM16.9638 271.221C16.9638 271.882 16.4277 272.418 15.7664 272.418C15.105 272.418 14.5689 271.882 14.5689 271.221C14.5689 270.56 15.105 270.023 15.7664 270.023C16.4277 270.023 16.9638 270.56 16.9638 271.221Z" fill="#3699FF"/>
<rect x="67.0568" y="191.591" width="25.5455" height="25.5455" rx="4.78141" fill="#F3F6F9"/>
<path d="M76.2372 201.969V209.153C76.2372 209.815 76.7733 210.351 77.4347 210.351H82.2244C82.8858 210.351 83.4219 209.815 83.4219 209.153V201.969H76.2372Z" fill="#3699FF"/>
<path opacity="0.3" fill-rule="evenodd" clip-rule="evenodd" d="M81.027 199.873V199.773C81.027 199.333 80.6696 198.975 80.2287 198.975H79.4304C78.9895 198.975 78.6321 199.333 78.6321 199.773V199.873H76.0377C75.8172 199.873 75.6385 200.052 75.6385 200.272V200.372C75.6385 200.593 75.8172 200.771 76.0377 200.771H83.6215C83.8419 200.771 84.0206 200.593 84.0206 200.372V200.272C84.0206 200.052 83.8419 199.873 83.6215 199.873H81.027Z" fill="#3699FF"/>
<rect x="33.5284" y="191.591" width="25.5455" height="25.5455" rx="4.78141" fill="#F3F6F9"/>
<path d="M51.2012 200.361C51.6622 200.822 51.6697 201.567 51.2182 202.037L46.894 206.541C46.6742 206.769 46.3726 206.902 46.0554 206.908L44.239 206.947L44.2773 205.118C44.2839 204.808 44.4104 204.513 44.6302 204.294L49.0504 199.899C49.5184 199.434 50.2747 199.435 50.7414 199.901L51.2012 200.361Z" fill="#3699FF"/>
<path opacity="0.3" d="M46.7802 199.042C47.0741 199.042 47.3124 199.28 47.3124 199.574C47.3124 199.868 47.0741 200.106 46.7802 200.106H43.108C42.5202 200.106 42.0436 200.583 42.0436 201.17V207.557C42.0436 208.145 42.5202 208.621 43.108 208.621H49.4944C50.0822 208.621 50.5588 208.145 50.5588 207.557V204.896C50.5588 204.602 50.7971 204.364 51.091 204.364C51.3849 204.364 51.6232 204.602 51.6232 204.896V207.557C51.6232 208.732 50.6701 209.686 49.4944 209.686H43.108C41.9323 209.686 40.9792 208.732 40.9792 207.557V201.17C40.9792 199.995 41.9323 199.042 43.108 199.042H46.7802Z" fill="#3699FF"/>
<rect y="191.591" width="25.5455" height="25.5455" rx="4.78141" fill="#F3F6F9"/>
<path fill-rule="evenodd" clip-rule="evenodd" d="M9.77912 198.975C8.45646 198.975 7.38424 200.047 7.38424 201.37C7.38424 202.693 8.45647 203.765 9.77912 203.765H15.7663C17.089 203.765 18.1612 202.693 18.1612 201.37C18.1612 200.047 17.089 198.975 15.7663 198.975H9.77912ZM10.9766 201.37C10.9766 202.031 10.4405 202.567 9.77914 202.567C9.11781 202.567 8.5817 202.031 8.5817 201.37C8.5817 200.709 9.11781 200.173 9.77914 200.173C10.4405 200.173 10.9766 200.709 10.9766 201.37Z" fill="#3699FF"/>
<path opacity="0.3" fill-rule="evenodd" clip-rule="evenodd" d="M9.77912 204.962C8.45646 204.962 7.38424 206.035 7.38424 207.357C7.38424 208.68 8.45647 209.752 9.77912 209.752H15.7663C17.089 209.752 18.1612 208.68 18.1612 207.357C18.1612 206.035 17.089 204.962 15.7663 204.962H9.77912ZM16.9638 207.357C16.9638 208.019 16.4277 208.555 15.7664 208.555C15.105 208.555 14.5689 208.019 14.5689 207.357C14.5689 206.696 15.105 206.16 15.7664 206.16C16.4277 206.16 16.9638 206.696 16.9638 207.357Z" fill="#3699FF"/>
<rect x="67.0568" y="127.727" width="25.5455" height="25.5455" rx="4.78141" fill="#F3F6F9"/>
<path d="M76.2372 138.105V145.29C76.2372 145.951 76.7733 146.487 77.4347 146.487H82.2244C82.8858 146.487 83.4219 145.951 83.4219 145.29V138.105H76.2372Z" fill="#3699FF"/>
<path opacity="0.3" fill-rule="evenodd" clip-rule="evenodd" d="M81.027 136.01V135.91C81.027 135.469 80.6696 135.111 80.2287 135.111H79.4304C78.9895 135.111 78.6321 135.469 78.6321 135.91V136.01H76.0377C75.8172 136.01 75.6385 136.188 75.6385 136.409V136.509C75.6385 136.729 75.8172 136.908 76.0377 136.908H83.6215C83.8419 136.908 84.0206 136.729 84.0206 136.509V136.409C84.0206 136.188 83.8419 136.01 83.6215 136.01H81.027Z" fill="#3699FF"/>
<rect x="33.5284" y="127.727" width="25.5455" height="25.5455" rx="4.78141" fill="#F3F6F9"/>
<path d="M51.2012 136.498C51.6622 136.959 51.6697 137.704 51.2182 138.174L46.894 142.677C46.6742 142.906 46.3726 143.038 46.0554 143.045L44.239 143.083L44.2773 141.254C44.2839 140.944 44.4104 140.649 44.6302 140.43L49.0504 136.035C49.5184 135.57 50.2747 135.571 50.7414 136.038L51.2012 136.498Z" fill="#3699FF"/>
<path opacity="0.3" d="M46.7802 135.178C47.0741 135.178 47.3124 135.416 47.3124 135.71C47.3124 136.004 47.0741 136.242 46.7802 136.242H43.108C42.5202 136.242 42.0436 136.719 42.0436 137.307V143.693C42.0436 144.281 42.5202 144.758 43.108 144.758H49.4944C50.0822 144.758 50.5588 144.281 50.5588 143.693V141.032C50.5588 140.738 50.7971 140.5 51.091 140.5C51.3849 140.5 51.6232 140.738 51.6232 141.032V143.693C51.6232 144.869 50.6701 145.822 49.4944 145.822H43.108C41.9323 145.822 40.9792 144.869 40.9792 143.693V137.307C40.9792 136.131 41.9323 135.178 43.108 135.178H46.7802Z" fill="#3699FF"/>
<rect y="127.727" width="25.5455" height="25.5455" rx="4.78141" fill="#F3F6F9"/>
<path fill-rule="evenodd" clip-rule="evenodd" d="M9.77912 135.111C8.45646 135.111 7.38424 136.184 7.38424 137.506C7.38424 138.829 8.45647 139.901 9.77912 139.901H15.7663C17.089 139.901 18.1612 138.829 18.1612 137.506C18.1612 136.184 17.089 135.111 15.7663 135.111H9.77912ZM10.9766 137.506C10.9766 138.168 10.4405 138.704 9.77914 138.704C9.11781 138.704 8.5817 138.168 8.5817 137.506C8.5817 136.845 9.11781 136.309 9.77914 136.309C10.4405 136.309 10.9766 136.845 10.9766 137.506Z" fill="#3699FF"/>
<path opacity="0.3" fill-rule="evenodd" clip-rule="evenodd" d="M9.77912 141.099C8.45646 141.099 7.38424 142.171 7.38424 143.494C7.38424 144.816 8.45647 145.888 9.77912 145.888H15.7663C17.089 145.888 18.1612 144.816 18.1612 143.494C18.1612 142.171 17.089 141.099 15.7663 141.099H9.77912ZM16.9638 143.494C16.9638 144.155 16.4277 144.691 15.7664 144.691C15.105 144.691 14.5689 144.155 14.5689 143.494C14.5689 142.832 15.105 142.296 15.7664 142.296C16.4277 142.296 16.9638 142.832 16.9638 143.494Z" fill="#3699FF"/>
<rect x="67.0568" y="63.8636" width="25.5455" height="25.5455" rx="4.78141" fill="#F3F6F9"/>
<path d="M76.2372 74.2415V81.4262C76.2372 82.0875 76.7733 82.6236 77.4347 82.6236H82.2244C82.8858 82.6236 83.4219 82.0875 83.4219 81.4262V74.2415H76.2372Z" fill="#3699FF"/>
<path opacity="0.3" fill-rule="evenodd" clip-rule="evenodd" d="M81.027 72.1459V72.0462C81.027 71.6053 80.6696 71.2479 80.2287 71.2479H79.4304C78.9895 71.2479 78.6321 71.6053 78.6321 72.0462V72.1459H76.0377C75.8172 72.1459 75.6385 72.3247 75.6385 72.5451V72.6449C75.6385 72.8653 75.8172 73.044 76.0377 73.044H83.6215C83.8419 73.044 84.0206 72.8653 84.0206 72.6449V72.5451C84.0206 72.3247 83.8419 72.1459 83.6215 72.1459H81.027Z" fill="#3699FF"/>
<rect x="33.5284" y="63.8636" width="25.5455" height="25.5455" rx="4.78141" fill="#F3F6F9"/>
<path d="M51.2012 72.634C51.6622 73.095 51.6697 73.8399 51.2182 74.3101L46.894 78.8134C46.6742 79.0422 46.3726 79.1745 46.0554 79.1812L44.239 79.2193L44.2773 77.3907C44.2839 77.0807 44.4104 76.7853 44.6302 76.5667L49.0504 72.1718C49.5184 71.7064 50.2747 71.7075 50.7414 72.1742L51.2012 72.634Z" fill="#3699FF"/>
<path opacity="0.3" d="M46.7802 71.3144C47.0741 71.3144 47.3124 71.5526 47.3124 71.8466C47.3124 72.1405 47.0741 72.3788 46.7802 72.3788H43.108C42.5202 72.3788 42.0436 72.8553 42.0436 73.4431V79.8295C42.0436 80.4174 42.5202 80.8939 43.108 80.8939H49.4944C50.0822 80.8939 50.5588 80.4174 50.5588 79.8295V77.1685C50.5588 76.8746 50.7971 76.6363 51.091 76.6363C51.3849 76.6363 51.6232 76.8746 51.6232 77.1685V79.8295C51.6232 81.0052 50.6701 81.9583 49.4944 81.9583H43.108C41.9323 81.9583 40.9792 81.0052 40.9792 79.8295V73.4431C40.9792 72.2674 41.9323 71.3144 43.108 71.3144H46.7802Z" fill="#3699FF"/>
<rect y="63.8636" width="25.5455" height="25.5455" rx="4.78141" fill="#F3F6F9"/>
<path fill-rule="evenodd" clip-rule="evenodd" d="M9.77912 71.2479C8.45646 71.2479 7.38424 72.3201 7.38424 73.6427C7.38424 74.9654 8.45647 76.0376 9.77912 76.0376H15.7663C17.089 76.0376 18.1612 74.9654 18.1612 73.6427C18.1612 72.3201 17.089 71.2479 15.7663 71.2479H9.77912ZM10.9766 73.6428C10.9766 74.3041 10.4405 74.8402 9.77914 74.8402C9.11781 74.8402 8.5817 74.3041 8.5817 73.6428C8.5817 72.9814 9.11781 72.4453 9.77914 72.4453C10.4405 72.4453 10.9766 72.9814 10.9766 73.6428Z" fill="#3699FF"/>
<path opacity="0.3" fill-rule="evenodd" clip-rule="evenodd" d="M9.77912 77.2351C8.45646 77.2351 7.38424 78.3073 7.38424 79.63C7.38424 80.9526 8.45647 82.0248 9.77912 82.0248H15.7663C17.089 82.0248 18.1612 80.9526 18.1612 79.63C18.1612 78.3073 17.089 77.2351 15.7663 77.2351H9.77912ZM16.9638 79.63C16.9638 80.2913 16.4277 80.8274 15.7664 80.8274C15.105 80.8274 14.5689 80.2913 14.5689 79.63C14.5689 78.9686 15.105 78.4325 15.7664 78.4325C16.4277 78.4325 16.9638 78.9686 16.9638 79.63Z" fill="#3699FF"/>
<rect x="67.0568" y="9.55343e-07" width="25.5455" height="25.5455" rx="4.78141" fill="#F3F6F9"/>
<path d="M76.2372 10.3779V17.5625C76.2372 18.2239 76.7733 18.76 77.4347 18.76H82.2244C82.8858 18.76 83.4219 18.2239 83.4219 17.5625V10.3779H76.2372Z" fill="#3699FF"/>
<path opacity="0.3" fill-rule="evenodd" clip-rule="evenodd" d="M81.027 8.28232V8.18253C81.027 7.74164 80.6696 7.38423 80.2287 7.38423H79.4304C78.9895 7.38423 78.6321 7.74164 78.6321 8.18253V8.28232H76.0377C75.8172 8.28232 75.6385 8.46102 75.6385 8.68146V8.78125C75.6385 9.00169 75.8172 9.1804 76.0377 9.1804H83.6215C83.8419 9.1804 84.0206 9.00169 84.0206 8.78125V8.68146C84.0206 8.46102 83.8419 8.28232 83.6215 8.28232H81.027Z" fill="#3699FF"/>
<rect x="33.5284" y="9.55343e-07" width="25.5455" height="25.5455" rx="4.78141" fill="#F3F6F9"/>
<path d="M51.2012 8.77037C51.6622 9.23131 51.6697 9.97628 51.2182 10.4465L46.894 14.9497C46.6742 15.1786 46.3726 15.3109 46.0554 15.3175L44.239 15.3556L44.2773 13.5271C44.2839 13.2171 44.4104 12.9217 44.6302 12.7031L49.0504 8.30814C49.5184 7.8428 50.2747 7.84388 50.7414 8.31056L51.2012 8.77037Z" fill="#3699FF"/>
<path opacity="0.3" d="M46.7802 7.45073C47.0741 7.45073 47.3124 7.689 47.3124 7.98293C47.3124 8.27685 47.0741 8.51512 46.7802 8.51512H43.108C42.5202 8.51512 42.0436 8.99167 42.0436 9.57952V15.9659C42.0436 16.5537 42.5202 17.0303 43.108 17.0303H49.4944C50.0822 17.0303 50.5588 16.5537 50.5588 15.9659V13.3049C50.5588 13.011 50.7971 12.7727 51.091 12.7727C51.3849 12.7727 51.6232 13.011 51.6232 13.3049V15.9659C51.6232 17.1416 50.6701 18.0947 49.4944 18.0947H43.108C41.9323 18.0947 40.9792 17.1416 40.9792 15.9659V9.57952C40.9792 8.40382 41.9323 7.45073 43.108 7.45073H46.7802Z" fill="#3699FF"/>
<rect x="6.1142e-05" width="25.5455" height="25.5455" rx="4.78141" fill="#F3F6F9"/>
<path fill-rule="evenodd" clip-rule="evenodd" d="M9.77912 7.38423C8.45646 7.38423 7.38424 8.45646 7.38424 9.77912C7.38424 11.1018 8.45647 12.174 9.77912 12.174H15.7663C17.089 12.174 18.1612 11.1018 18.1612 9.77912C18.1612 8.45646 17.089 7.38423 15.7663 7.38423H9.77912ZM10.9766 9.77912C10.9766 10.4404 10.4405 10.9766 9.77914 10.9766C9.11781 10.9766 8.5817 10.4404 8.5817 9.77912C8.5817 9.11779 9.11781 8.58167 9.77914 8.58167C10.4405 8.58167 10.9766 9.11779 10.9766 9.77912Z" fill="#3699FF"/>
<path opacity="0.3" fill-rule="evenodd" clip-rule="evenodd" d="M9.77912 13.3715C8.45646 13.3715 7.38424 14.4437 7.38424 15.7663C7.38424 17.089 8.45647 18.1612 9.77912 18.1612H15.7663C17.089 18.1612 18.1612 17.089 18.1612 15.7663C18.1612 14.4437 17.089 13.3715 15.7663 13.3715H9.77912ZM16.9638 15.7663C16.9638 16.4277 16.4277 16.9638 15.7664 16.9638C15.105 16.9638 14.5689 16.4277 14.5689 15.7663C14.5689 15.105 15.105 14.5689 15.7664 14.5689C16.4277 14.5689 16.9638 15.105 16.9638 15.7663Z" fill="#3699FF"/>
</svg>
