<svg width="68" height="65" viewBox="0 0 68 65" fill="none" xmlns="http://www.w3.org/2000/svg">
<path fill-rule="evenodd" clip-rule="evenodd" d="M12.0635 8.12498C11.6203 8.12498 11.2611 8.48426 11.2611 8.92745V56.0725C11.2611 56.5157 11.6203 56.875 12.0635 56.875H18.9044C19.3476 56.875 19.7069 56.5157 19.7069 56.0725V8.92745C19.7069 8.48426 19.3476 8.12498 18.9044 8.12498H12.0635ZM26.1398 8.12501C25.6967 8.12501 25.3374 8.48429 25.3374 8.92748V56.0725C25.3374 56.5157 25.6967 56.875 26.1398 56.875H32.9807C33.4239 56.875 33.7832 56.5157 33.7832 56.0725V8.92748C33.7832 8.48429 33.4239 8.12501 32.9807 8.12501H26.1398Z" fill="#B5B5C3"/>
<rect opacity="0.3" width="8.354" height="48.6179" rx="0.796901" transform="matrix(0.955908 -0.316644 0.339342 0.948088 37.9418 10.6281)" fill="#B5B5C3"/>
</svg>
