<svg width="762" height="229" viewBox="0 0 762 229" fill="none" xmlns="http://www.w3.org/2000/svg">
<path d="M18.0647 135.624H52.6451C54.4075 135.624 55.8362 137.053 55.8362 138.816V225.775C55.8362 227.537 54.4075 228.966 52.6451 228.966H18.0647V135.624Z" fill="#E5EAEE"/>
<rect y="111.691" width="22.9914" height="117.275" rx="3.1876" fill="#FFA800"/>
<path d="M159.298 96.5326H193.878C195.641 96.5326 197.069 97.9614 197.069 99.7238V225.775C197.069 227.537 195.641 228.966 193.878 228.966H159.298V96.5326Z" fill="#E5EAEE"/>
<rect x="141.233" y="72.5989" width="22.9914" height="156.367" rx="3.1876" fill="#FFA800"/>
<path d="M300.53 55.8453H335.11C336.873 55.8453 338.302 57.2741 338.302 59.0365V225.775C338.302 227.537 336.873 228.966 335.11 228.966H300.53V55.8453Z" fill="#E5EAEE"/>
<rect x="282.465" y="31.9116" width="22.9913" height="197.054" rx="3.1876" fill="#FFA800"/>
<path d="M441.763 87.3857H476.344C478.106 87.3857 479.535 88.8144 479.535 90.5769V225.775C479.535 227.537 478.106 228.966 476.344 228.966H441.763V87.3857Z" fill="#E5EAEE"/>
<rect x="423.698" y="63.8232" width="22.9914" height="165.143" rx="3.1876" fill="#FFA800"/>
<path d="M582.995 62.7629H617.576C619.338 62.7629 620.767 64.1916 620.767 65.9541V225.775C620.767 227.537 619.338 228.966 617.576 228.966H582.995V62.7629Z" fill="#E5EAEE"/>
<rect x="564.931" y="39.0917" width="22.9914" height="189.874" rx="3.1876" fill="#FFA800"/>
<path d="M724.228 23.9337H758.809C760.571 23.9337 762 25.3625 762 27.1249V225.775C762 227.537 760.571 228.966 758.809 228.966H724.228V23.9337Z" fill="#E5EAEE"/>
<rect x="706.164" width="22.9912" height="228.966" rx="3.1876" fill="#FFA800"/>
</svg>
