<svg width="23" height="23" viewBox="0 0 23 23" fill="none" xmlns="http://www.w3.org/2000/svg">
<g clip-path="url(#clip0_1_189)">
<path d="M12.4299 17.6343L7.92865 22.122C7.79393 22.2029 7.61874 22.4051 7.25483 22.2972C7.0662 22.2298 6.83705 22.0142 6.79667 21.7716V21.7581L5.50287 14.0226L6.55409 13.2275C6.6902 13.3074 9.28776 14.8305 9.12807 14.7369L12.4298 16.6775C12.6859 16.947 12.6859 17.3648 12.4299 17.6343Z" fill="#009AE4"/>
<path d="M22.9869 1.4808L18.8986 21.7851C18.8582 22.0007 18.6965 22.1894 18.4809 22.2703C18.4 22.3107 18.3191 22.3242 18.2383 22.3242C18.1035 22.3242 17.9687 22.2838 17.8475 22.2029C17.7119 22.106 7.78222 15.0134 8.41387 15.4646C2.40152 12.4863 5.53765 14.0517 0.377344 11.4756C0.134766 11.3543 0 11.1117 0 10.8556C0.0134766 10.5861 0.161719 10.357 0.404297 10.2492L22.057 0.726113C22.2861 0.631777 22.5556 0.65873 22.7443 0.820449C22.7713 0.847402 22.8117 0.887832 22.8386 0.914785C22.9734 1.0765 23.0273 1.27865 22.9869 1.4808Z" fill="#25D9F8"/>
<path d="M22.8386 0.914785L9.1281 14.7369L8.41389 15.4646L7.25486 22.2972C7.06623 22.2298 6.83709 22.0141 6.7967 21.7716V21.7581L5.50291 14.0226L6.55412 13.2275L22.8386 0.914785Z" fill="#00C0F1"/>
</g>
<defs>
<clipPath id="clip0_1_189">
<rect width="22.3132" height="22.3132" fill="white" transform="scale(1.03078)"/>
</clipPath>
</defs>
</svg>
