<svg width="185" height="19" viewBox="0 0 185 19" fill="none" xmlns="http://www.w3.org/2000/svg">
<path opacity="0.3" d="M9.91764 14.1552C9.54135 13.7793 9.54135 13.1699 9.91764 12.794C10.2939 12.4181 10.904 12.4181 11.2803 12.794L15.1345 16.6439C15.5107 17.0198 15.5107 17.6292 15.1345 18.0051C14.7582 18.3809 14.1481 18.3809 13.7718 18.0051L9.91764 14.1552Z" fill="#6993FF"/>
<path fill-rule="evenodd" clip-rule="evenodd" d="M0 8.66225C0 12.3832 3.01975 15.3996 6.74479 15.3996C10.4698 15.3996 13.4896 12.3832 13.4896 8.66225C13.4896 4.94133 10.4698 1.92492 6.74479 1.92492C3.01975 1.92492 0 4.94133 0 8.66225ZM11.5625 8.66226C11.5625 11.3201 9.40554 13.4746 6.74479 13.4746C4.08404 13.4746 1.92708 11.3201 1.92708 8.66226C1.92708 6.00446 4.08404 3.84989 6.74479 3.84989C9.40554 3.84989 11.5625 6.00446 11.5625 8.66226Z" fill="#6993FF"/>
<path opacity="0.3" fill-rule="evenodd" clip-rule="evenodd" d="M40.8358 8.52913C40.367 8.9974 40.367 9.75663 40.8358 10.2249L43.2261 12.6126C43.6949 13.0808 44.455 13.0808 44.9238 12.6126L47.3141 10.2249C47.7829 9.75663 47.7829 8.9974 47.3141 8.52913L44.9238 6.14147C44.455 5.67319 43.6949 5.6732 43.2261 6.14147L40.8358 8.52913ZM52.3983 8.52913C51.9295 8.9974 51.9295 9.75663 52.3983 10.2249L54.7886 12.6126C55.2574 13.0808 56.0175 13.0808 56.4863 12.6126L58.8766 10.2249C59.3454 9.75663 59.3454 8.9974 58.8766 8.52913L56.4863 6.14147C56.0175 5.67319 55.2574 5.6732 54.7886 6.14147L52.3983 8.52913Z" fill="#6993FF"/>
<path fill-rule="evenodd" clip-rule="evenodd" d="M46.6171 2.7543C46.1483 3.22258 46.1483 3.9818 46.6171 4.45008L49.0074 6.83774C49.4762 7.30601 50.2362 7.30601 50.705 6.83774L53.0953 4.45008C53.5641 3.9818 53.5641 3.22258 53.0953 2.7543L50.705 0.366644C50.2362 -0.101632 49.4762 -0.101631 49.0074 0.366645L46.6171 2.7543ZM46.6171 14.304C46.1483 14.7723 46.1483 15.5315 46.6171 15.9998L49.0074 18.3874C49.4762 18.8557 50.2362 18.8557 50.705 18.3874L53.0953 15.9998C53.5641 15.5315 53.5641 14.7723 53.0953 14.304L50.705 11.9163C50.2362 11.4481 49.4762 11.4481 49.0074 11.9163L46.6171 14.304Z" fill="#6993FF"/>
<rect opacity="0.3" x="93.4635" y="1.92492" width="2.89062" height="15.3996" rx="1.44" fill="#6993FF"/>
<rect x="88.6458" y="6.73729" width="2.89062" height="10.5872" rx="1.44" fill="#6993FF"/>
<rect x="98.2813" y="8.66227" width="2.89062" height="8.66228" rx="1.44" fill="#6993FF"/>
<rect x="83.8281" y="10.5872" width="2.89062" height="6.73733" rx="1.44" fill="#6993FF"/>
<path opacity="0.3" d="M134.896 2.46591L130.818 7.35349C130.478 7.76184 129.87 7.81701 129.461 7.47672C129.052 7.13642 128.997 6.52952 129.338 6.12116L134.156 0.346313C134.541 -0.115438 135.251 -0.115438 135.636 0.346313L140.454 6.12116C140.794 6.52952 140.739 7.13642 140.33 7.47672C139.922 7.81701 139.314 7.76184 138.973 7.35349L134.896 2.46591Z" fill="#6993FF"/>
<path fill-rule="evenodd" clip-rule="evenodd" d="M126.706 6.73729H143.086C143.618 6.73729 144.049 7.1682 144.049 7.69976C144.049 7.82683 144.024 7.95265 143.975 8.06994L140.455 16.5101C140.006 17.5861 138.953 18.287 137.786 18.287H132.005C130.838 18.287 129.786 17.5861 129.337 16.5101L125.816 8.06994C125.612 7.57927 125.844 7.01577 126.335 6.81132C126.453 6.76245 126.578 6.73729 126.706 6.73729ZM134.896 14.4371C135.96 14.4371 136.823 13.5753 136.823 12.5121C136.823 11.449 135.96 10.5872 134.896 10.5872C133.832 10.5872 132.969 11.449 132.969 12.5121C132.969 13.5753 133.832 14.4371 134.896 14.4371Z" fill="#6993FF"/>
<rect x="169.583" y="1.92492" width="6.74479" height="6.73733" rx="1.19535" fill="#6993FF"/>
<path opacity="0.3" fill-rule="evenodd" clip-rule="evenodd" d="M178.255 3.12468C178.255 2.46207 178.792 1.92492 179.455 1.92492H183.8C184.463 1.92492 185 2.46207 185 3.12468V7.46249C185 8.1251 184.463 8.66225 183.8 8.66225H179.455C178.792 8.66225 178.255 8.1251 178.255 7.46249V3.12468ZM169.583 11.787C169.583 11.1244 170.121 10.5872 170.783 10.5872H175.128C175.791 10.5872 176.328 11.1244 176.328 11.787V16.1248C176.328 16.7874 175.791 17.3245 175.128 17.3245H170.783C170.121 17.3245 169.583 16.7874 169.583 16.1248V11.787ZM179.455 10.5872C178.792 10.5872 178.255 11.1244 178.255 11.787V16.1248C178.255 16.7874 178.792 17.3245 179.455 17.3245H183.8C184.463 17.3245 185 16.7874 185 16.1248V11.787C185 11.1244 184.463 10.5872 183.8 10.5872H179.455Z" fill="#6993FF"/>
</svg>
