<svg width="15" height="14" viewBox="0 0 15 14" fill="none" xmlns="http://www.w3.org/2000/svg">
<path d="M7.7071 1.70522C8.09763 1.31513 8.09763 0.682661 7.7071 0.292569C7.31658 -0.097523 6.68341 -0.097523 6.29289 0.292569L0.292885 6.28593C-0.0856936 6.66409 -0.0989393 7.273 0.262838 7.66723L5.76284 13.6606C6.13603 14.0673 6.7686 14.0947 7.17572 13.722C7.58284 13.3492 7.61034 12.7173 7.23715 12.3106L2.38413 7.0223L7.7071 1.70522Z" fill="#6993FF"/>
<path opacity="0.3" d="M14.7071 1.70522C15.0976 1.31513 15.0976 0.682661 14.7071 0.292569C14.3166 -0.097523 13.6834 -0.097523 13.2929 0.292569L7.2929 6.28593C6.91432 6.66409 6.90107 7.273 7.26285 7.66723L12.7629 13.6606C13.136 14.0673 13.7686 14.0947 14.1757 13.722C14.5829 13.3492 14.6104 12.7173 14.2372 12.3106L9.38414 7.0223L14.7071 1.70522Z" fill="#6993FF"/>
</svg>
