<svg width="16" height="16" viewBox="0 0 16 16" fill="none" xmlns="http://www.w3.org/2000/svg">
<path fill-rule="evenodd" clip-rule="evenodd" d="M3.46667 2C3.02484 2 2.66667 2.35817 2.66667 2.8V13.2C2.66667 13.6418 3.02484 14 3.46667 14H3.86667C4.3085 14 4.66667 13.6418 4.66667 13.2V2.8C4.66667 2.35817 4.3085 2 3.86667 2H3.46667ZM6.8 2C6.35817 2 6 2.35817 6 2.8V13.2C6 13.6418 6.35817 14 6.8 14H7.2C7.64183 14 8 13.6418 8 13.2V2.8C8 2.35817 7.64183 2 7.2 2H6.8Z" fill="#8950FC"/>
<rect opacity="0.3" x="8.98479" y="2.61612" width="2" height="12" rx="0.796901" transform="rotate(-19 8.98479 2.61612)" fill="#8950FC"/>
</svg>
