<svg width="57" height="65" viewBox="0 0 57 65" fill="none" xmlns="http://www.w3.org/2000/svg">
<rect x="9.40082" y="10.8333" width="16.4514" height="18.9583" rx="1.19535" fill="#B5B5C3"/>
<path opacity="0.3" fill-rule="evenodd" clip-rule="evenodd" d="M30.5527 12.0371C30.5527 11.3723 31.0916 10.8333 31.7564 10.8333H45.8004C46.4652 10.8333 47.0041 11.3723 47.0041 12.0371V28.588C47.0041 29.2528 46.4652 29.7917 45.8004 29.7917H31.7564C31.0916 29.7917 30.5527 29.2528 30.5527 28.588V12.0371ZM9.40082 36.4121C9.40082 35.7473 9.93974 35.2083 10.6045 35.2083H24.6486C25.3134 35.2083 25.8523 35.7473 25.8523 36.4121V52.963C25.8523 53.6278 25.3134 54.1667 24.6486 54.1667H10.6045C9.93974 54.1667 9.40082 53.6278 9.40082 52.963V36.4121ZM31.7564 35.2083C31.0916 35.2083 30.5527 35.7473 30.5527 36.4121V52.963C30.5527 53.6278 31.0916 54.1667 31.7564 54.1667H45.8004C46.4652 54.1667 47.0041 53.6278 47.0041 52.963V36.4121C47.0041 35.7473 46.4652 35.2083 45.8004 35.2083H31.7564Z" fill="#B5B5C3"/>
</svg>
