<svg width="9" height="161" viewBox="0 0 9 161" fill="none" xmlns="http://www.w3.org/2000/svg">
<path d="M7.89381 0.187887C8.14459 -0.062609 8.55117 -0.062609 8.80194 0.187887C9.05272 0.438383 9.05272 0.844516 8.80194 1.09501L4.94907 4.94362C4.70597 5.18645 4.31453 5.19495 4.06109 4.96289L0.208224 1.435C-0.0532058 1.19562 -0.0708668 0.789874 0.168777 0.528734C0.40842 0.267593 0.81462 0.249952 1.07605 0.489331L4.47569 3.60222L7.89381 0.187887Z" fill="white"/>
<path d="M3.35176 39.628C3.16368 39.4402 3.16368 39.1356 3.35176 38.9477C3.53984 38.7598 3.84478 38.7598 4.03286 38.9477L6.92251 41.8341C7.10484 42.0163 7.11122 42.3095 6.93698 42.4994L4.28814 45.3858C4.1084 45.5817 3.80375 45.5949 3.60768 45.4154C3.41161 45.2359 3.39836 44.9315 3.5781 44.7357L5.91535 42.1888L3.35176 39.628Z" fill="#494B69"/>
<path d="M3.35173 78.114C3.16365 77.9262 3.16365 77.6216 3.35173 77.4337C3.53981 77.2458 3.84475 77.2458 4.03283 77.4337L6.92248 80.3202C7.10481 80.5023 7.11119 80.7955 6.93695 80.9854L4.28811 83.8719C4.10837 84.0677 3.80372 84.0809 3.60765 83.9014C3.41158 83.7219 3.39833 83.4176 3.57807 83.2217L5.91532 80.6748L3.35173 78.114Z" fill="#494B69"/>
<path d="M3.35176 116.6C3.16368 116.412 3.16368 116.108 3.35176 115.92C3.53984 115.732 3.84478 115.732 4.03286 115.92L6.92251 118.806C7.10484 118.988 7.11122 119.282 6.93698 119.471L4.28814 122.358C4.1084 122.554 3.80375 122.567 3.60768 122.387C3.41161 122.208 3.39836 121.904 3.5781 121.708L5.91535 119.161L3.35176 116.6Z" fill="#494B69"/>
<path d="M3.35176 155.086C3.16368 154.898 3.16368 154.594 3.35176 154.406C3.53984 154.218 3.84478 154.218 4.03286 154.406L6.92251 157.292C7.10484 157.474 7.11122 157.768 6.93698 157.958L4.28814 160.844C4.1084 161.04 3.80375 161.053 3.60768 160.874C3.41161 160.694 3.39836 160.39 3.5781 160.194L5.91535 157.647L3.35176 155.086Z" fill="#494B69"/>
</svg>
