<svg width="79" height="57" viewBox="0 0 79 57" fill="none" xmlns="http://www.w3.org/2000/svg">
<path opacity="0.3" fill-rule="evenodd" clip-rule="evenodd" d="M13.1667 8.69815C13.1667 7.81468 13.8829 7.09849 14.7663 7.09849H64.2337C65.1172 7.09849 65.8333 7.81468 65.8333 8.69815V48.0897C65.8333 48.9732 65.1172 49.6894 64.2337 49.6894H14.7663C13.8829 49.6894 13.1667 48.9732 13.1667 48.0897V8.69815ZM16.4583 12.2307C16.4583 12.0098 16.6374 11.8308 16.8583 11.8308H22.6418C22.8626 11.8308 23.0417 12.0098 23.0417 12.2307V16.1632C23.0417 16.3841 22.8626 16.5631 22.6418 16.5631H16.8583C16.6374 16.5631 16.4583 16.3841 16.4583 16.1632V12.2307ZM56.3583 11.8308C56.1374 11.8308 55.9583 12.0098 55.9583 12.2307V16.1632C55.9583 16.3841 56.1374 16.5631 56.3583 16.5631H62.1418C62.3626 16.5631 62.5417 16.3841 62.5417 16.1632V12.2307C62.5417 12.0098 62.3626 11.8308 62.1418 11.8308H56.3583ZM16.4583 21.6953C16.4583 21.4745 16.6374 21.2954 16.8583 21.2954H22.6418C22.8626 21.2954 23.0417 21.4745 23.0417 21.6953V25.6278C23.0417 25.8487 22.8626 26.0277 22.6418 26.0277H16.8583C16.6374 26.0277 16.4583 25.8487 16.4583 25.6278V21.6953ZM56.3583 21.2954C56.1374 21.2954 55.9583 21.4745 55.9583 21.6953V25.6278C55.9583 25.8487 56.1374 26.0277 56.3583 26.0277H62.1418C62.3626 26.0277 62.5417 25.8487 62.5417 25.6278V21.6953C62.5417 21.4745 62.3626 21.2954 62.1418 21.2954H56.3583ZM16.4583 31.16C16.4583 30.9391 16.6374 30.76 16.8583 30.76H22.6418C22.8626 30.76 23.0417 30.9391 23.0417 31.16V35.0924C23.0417 35.3133 22.8626 35.4924 22.6418 35.4924H16.8583C16.6374 35.4924 16.4583 35.3133 16.4583 35.0924V31.16ZM56.3583 30.76C56.1374 30.76 55.9583 30.9391 55.9583 31.16V35.0924C55.9583 35.3133 56.1374 35.4924 56.3583 35.4924H62.1418C62.3626 35.4924 62.5417 35.3133 62.5417 35.0924V31.16C62.5417 30.9391 62.3626 30.76 62.1418 30.76H56.3583ZM55.9583 40.6246C55.9583 40.4038 56.1374 40.2247 56.3583 40.2247H62.1418C62.3626 40.2247 62.5417 40.4038 62.5417 40.6246V44.5571C62.5417 44.778 62.3626 44.957 62.1418 44.957H56.3583C56.1374 44.957 55.9583 44.778 55.9583 44.5571V40.6246ZM16.8583 40.2247C16.6374 40.2247 16.4583 40.4038 16.4583 40.6246V44.5571C16.4583 44.778 16.6374 44.957 16.8583 44.957H22.6418C22.8626 44.957 23.0417 44.778 23.0417 44.5571V40.6246C23.0417 40.4038 22.8626 40.2247 22.6418 40.2247H16.8583Z" fill="white"/>
<path fill-rule="evenodd" clip-rule="evenodd" d="M34.7929 35.1032C34.7929 35.3993 35.1035 35.5927 35.3692 35.4622L47.1946 29.6516C47.4923 29.5053 47.4928 29.0812 47.1955 28.9342L35.3701 23.087C35.1043 22.9555 34.7929 23.1489 34.7929 23.4455V35.1032Z" fill="white"/>
</svg>
