<svg width="16" height="16" viewBox="0 0 16 16" fill="none" xmlns="http://www.w3.org/2000/svg">
<rect opacity="0.3" width="7.99998" height="15.9822" fill="#4A4B68"/>
<path fill-rule="evenodd" clip-rule="evenodd" d="M2.00002 4.99445V1.99778H5.00001C5.00001 1.99778 6 1.99778 6 0.998891C6 0 5.00001 0 5.00001 0H2.27921e-05V4.99445C2.27921e-05 4.99445 0.171595 5.99334 1.00002 5.99334C1.82844 5.99334 2.00002 4.99445 2.00002 4.99445ZM14 1.99778H11C11 1.99778 9.99996 1.8264 9.99996 0.998892C9.99996 0.171384 11 1.98682e-06 11 1.98682e-06H15.9999V4.99445C15.9999 4.99445 15.9999 5.99334 14.9999 5.99334C14 5.99334 14 4.99445 14 4.99445V1.99778ZM4.99998 13.9845H1.99999V10.9878C1.99999 10.9878 1.99999 9.9889 0.999997 9.9889C0 9.9889 0 10.9878 0 10.9878V15.9822H4.99998C4.99998 15.9822 5.99998 15.8109 5.99998 14.9833C5.99998 14.1558 4.99998 13.9845 4.99998 13.9845ZM14 10.9878V13.9845L11 13.9845C11 13.9845 9.99999 13.9845 9.99999 14.9833C9.99999 15.9822 11 15.9822 11 15.9822H16V10.9878C16 10.9878 15.8284 9.9889 15 9.9889C14.1716 9.9889 14 10.9878 14 10.9878Z" fill="#4A4B68"/>
</svg>
