<svg width="16" height="16" viewBox="0 0 16 16" fill="none" xmlns="http://www.w3.org/2000/svg">
<path fill-rule="evenodd" clip-rule="evenodd" d="M14.6637 11.9804C14.9161 12.2328 15.3478 12.0531 15.3465 11.6961L15.336 8.73684V3.68421C15.336 2.75404 14.5819 2 13.6518 2H5.7921C4.86194 2 4.10789 2.75404 4.10789 3.68421V6H8.26667C9.59215 6 10.6667 7.07452 10.6667 8.4V10.421H13.1044L14.6637 11.9804Z" fill="#1BC5BD"/>
<path opacity="0.3" fill-rule="evenodd" clip-rule="evenodd" d="M1.32338 12V8.66666C1.32338 7.93028 1.92033 7.33332 2.65671 7.33332H7.99004C8.72642 7.33332 9.32338 7.93028 9.32338 8.66666V12C9.32338 12.7364 8.72642 13.3333 7.99004 13.3333H2.73387L2.01739 14.0191C1.76299 14.2626 1.34081 14.0823 1.34081 13.7301V12.2162C1.32934 12.1458 1.32338 12.0736 1.32338 12ZM4 9.66666C4 9.48256 4.14924 9.33332 4.33334 9.33332H7.66667C7.85076 9.33332 8 9.48256 8 9.66666C8 9.85075 7.85076 9.99999 7.66667 9.99999H4.33334C4.14924 9.99999 4 9.85075 4 9.66666ZM6.33334 10.6666C6.14924 10.6666 6 10.8159 6 11C6 11.1841 6.14924 11.3333 6.33334 11.3333H7.66667C7.85076 11.3333 8 11.1841 8 11C8 10.8159 7.85076 10.6666 7.66667 10.6666H6.33334Z" fill="#1BC5BD"/>
</svg>
