<svg width="16" height="16" viewBox="0 0 16 16" fill="none" xmlns="http://www.w3.org/2000/svg">
<path fill-rule="evenodd" clip-rule="evenodd" d="M8.00001 10.6667C6.15906 10.6667 4.66668 9.17429 4.66668 7.33334H3.33335C3.33335 9.68488 5.07265 11.6302 7.33497 11.953C7.33389 11.9685 7.33334 11.9842 7.33334 12V14C7.33334 14.3682 7.63182 14.6667 8.00001 14.6667C8.3682 14.6667 8.66667 14.3682 8.66667 14V12C8.66667 11.9842 8.66612 11.9685 8.66504 11.953C10.9274 11.6302 12.6667 9.68489 12.6667 7.33334H11.3333C11.3333 9.17429 9.84096 10.6667 8.00001 10.6667Z" fill="#FFA800"/>
<rect opacity="0.3" x="6" y="1.33335" width="4" height="8" rx="1.99225" fill="#FFA800"/>
</svg>
