<svg width="20" height="24" viewBox="0 0 20 24" fill="none" xmlns="http://www.w3.org/2000/svg">
<path opacity="0.3" d="M2.23104 0H11.9187C12.2014 0 12.475 0.10011 12.691 0.282584L18.7969 5.44145C19.066 5.66883 19.2213 6.00324 19.2213 6.35555V21.7C19.2213 23.8486 19.1967 24 16.9902 24H2.23104C0.0245647 24 0 23.8486 0 21.7V2.3C0 0.15135 0.0245647 0 2.23104 0Z" fill="#0ABB87"/>
<path fill-rule="evenodd" clip-rule="evenodd" d="M8.40934 14.4L6.00668 14.4C5.3432 14.4 4.80535 13.8627 4.80535 13.2C4.80535 12.5372 5.3432 12 6.00668 12L8.40934 12L8.40934 9.59997C8.40934 8.93723 8.94719 8.39997 9.61067 8.39997C10.2741 8.39997 10.812 8.93723 10.812 9.59997L10.812 12L13.2147 12C13.8781 12 14.416 12.5372 14.416 13.2C14.416 13.8627 13.8781 14.4 13.2147 14.4L10.812 14.4L10.812 16.8C10.812 17.4627 10.2741 18 9.61067 18C8.94719 18 8.40934 17.4627 8.40934 16.8L8.40934 14.4Z" fill="#0ABB87"/>
</svg>
