<svg width="16" height="16" viewBox="0 0 16 16" fill="none" xmlns="http://www.w3.org/2000/svg">
<path opacity="0.3" fill-rule="evenodd" clip-rule="evenodd" d="M6.58579 8.47141L5.17157 9.88562C4.91122 10.146 4.91122 10.5681 5.17157 10.8284C5.43192 11.0888 5.85403 11.0888 6.11438 10.8284L7.5286 9.41422L8 9.88562C8.5207 10.4063 8.5207 11.2505 8 11.7712L6.11438 13.6569C5.59368 14.1776 4.74946 14.1776 4.22876 13.6569L2.34315 11.7712C1.82245 11.2505 1.82245 10.4063 2.34315 9.88562L4.22876 8C4.74946 7.4793 5.59368 7.4793 6.11438 8L6.58579 8.47141Z" fill="#F64E60"/>
<path fill-rule="evenodd" clip-rule="evenodd" d="M9.41422 7.52859L10.8284 6.11438C11.0888 5.85403 11.0888 5.43192 10.8284 5.17157C10.5681 4.91122 10.146 4.91122 9.88563 5.17157L8.47141 6.58578L8.00001 6.11438C7.47931 5.59368 7.47931 4.74946 8.00001 4.22876L9.88563 2.34314C10.4063 1.82244 11.2505 1.82244 11.7712 2.34314L13.6569 4.22876C14.1776 4.74946 14.1776 5.59368 13.6569 6.11438L11.7712 8C11.2505 8.5207 10.4063 8.5207 9.88563 8L9.41422 7.52859Z" fill="#F64E60"/>
<path opacity="0.3" fill-rule="evenodd" clip-rule="evenodd" d="M2.81455 3.75737C2.5542 3.49702 2.5542 3.07491 2.81455 2.81456C3.0749 2.55421 3.49701 2.55421 3.75736 2.81456L4.70016 3.75737C4.96051 4.01771 4.96051 4.43983 4.70016 4.70017C4.43982 4.96052 4.01771 4.96052 3.75736 4.70017L2.81455 3.75737ZM5.5621 1.67648C5.5621 1.30829 5.86058 1.00981 6.22877 1.00981C6.59696 1.00981 6.89543 1.30829 6.89543 1.67648L6.89543 3.00981C6.89543 3.378 6.59696 3.67648 6.22877 3.67648C5.86058 3.67648 5.5621 3.378 5.5621 3.00981L5.5621 1.67648ZM1.1242 6.11438C1.1242 5.74619 1.42267 5.44772 1.79086 5.44772L3.1242 5.44772C3.49239 5.44772 3.79086 5.74619 3.79086 6.11438C3.79086 6.48257 3.49239 6.78105 3.1242 6.78105L1.79086 6.78105C1.42267 6.78105 1.1242 6.48257 1.1242 6.11438Z" fill="#F64E60"/>
<path opacity="0.3" fill-rule="evenodd" clip-rule="evenodd" d="M12.1618 13.1046C12.4221 13.3649 12.8442 13.3649 13.1046 13.1046C13.3649 12.8442 13.3649 12.4221 13.1046 12.1618L12.1618 11.219C11.9014 10.9586 11.4793 10.9586 11.219 11.219C10.9586 11.4793 10.9586 11.9014 11.219 12.1618L12.1618 13.1046ZM14.2426 10.357C14.6108 10.357 14.9093 10.0585 14.9093 9.69035C14.9093 9.32216 14.6108 9.02369 14.2427 9.02369H12.9093C12.5411 9.02369 12.2427 9.32216 12.2427 9.69035C12.2427 10.0585 12.5411 10.357 12.9093 10.357L14.2426 10.357ZM9.80475 14.7949C10.1729 14.7949 10.4714 14.4964 10.4714 14.1283V12.7949C10.4714 12.4267 10.1729 12.1283 9.80475 12.1283C9.43656 12.1283 9.13808 12.4267 9.13808 12.7949L9.13808 14.1283C9.13808 14.4964 9.43656 14.7949 9.80475 14.7949Z" fill="#F64E60"/>
</svg>
