<svg width="24" height="24" viewBox="0 0 24 24" fill="none" xmlns="http://www.w3.org/2000/svg">
<g clip-path="url(#clip0_1_173)">
<path d="M13.3952 24H10.6048C6.11587 24 2.46388 20.348 2.46388 15.859V2.70544C2.46384 1.21364 3.67748 0 5.16927 0C6.66107 0 7.87471 1.21364 7.87471 2.70544V15.859C7.87471 17.3644 9.09946 18.5892 10.6048 18.5892H13.3952C14.9006 18.5892 16.1253 17.3645 16.1253 15.859C16.1253 14.3536 14.9006 13.1289 13.3952 13.1289H12.0784C10.5866 13.1289 9.37297 11.9153 9.37297 10.4235C9.37297 8.9317 10.5866 7.71806 12.0784 7.71806H13.3952C17.8842 7.71806 21.5361 11.3701 21.5361 15.859C21.5361 20.348 17.8842 24 13.3952 24Z" fill="#FF3C3C"/>
<path d="M13.395 7.71804H12.7181V13.1289H13.395C14.9004 13.1289 16.1251 14.3536 16.1251 15.859C16.1251 17.3643 14.9004 18.5891 13.395 18.5891H12.7181V23.9999H13.395C17.884 23.9999 21.536 20.3479 21.536 15.859C21.536 11.37 17.884 7.71804 13.395 7.71804Z" fill="#DA0806"/>
</g>
<defs>
<clipPath id="clip0_1_173">
<rect width="23.1101" height="23.1101" fill="white" transform="scale(1.03851)"/>
</clipPath>
</defs>
</svg>
