<svg width="76" height="60" viewBox="0 0 76 60" fill="none" xmlns="http://www.w3.org/2000/svg">
<path opacity="0.3" fill-rule="evenodd" clip-rule="evenodd" d="M12.6633 9.99998L37.7556 6.28468C37.911 6.26167 38.0689 6.26167 38.2243 6.28468L63.3166 9.99998V39.5298C63.3166 42.8794 61.415 45.9385 58.4113 47.421L38.344 57.3252C38.1208 57.4354 37.8591 57.4354 37.6359 57.3252L17.5686 47.421C14.5649 45.9385 12.6633 42.8794 12.6633 39.5298L12.6633 9.99998Z" fill="#B5B5C3"/>
<path fill-rule="evenodd" clip-rule="evenodd" d="M35.3781 36.875C34.6196 36.875 33.8611 36.6354 33.2544 36.1562L27.1865 31.3646C25.973 30.4062 25.973 28.9687 27.1865 28.0104C28.4001 27.0521 30.3721 27.0521 31.434 28.0104L35.3781 31.125L45.39 23.2187C46.6036 22.2604 48.424 22.2604 49.6375 23.2187C50.8511 24.1771 50.8511 25.6146 49.6375 26.5729L37.5018 36.1562C36.8951 36.6354 36.1366 36.875 35.3781 36.875Z" fill="#B5B5C3"/>
</svg>
