<svg width="17" height="19" viewBox="0 0 17 19" fill="none" xmlns="http://www.w3.org/2000/svg">
<path d="M7.72865 13.8302C8.18063 14.1918 8.82294 14.1916 9.27468 13.8297L16.0608 8.39296L16.534 8.0159C17.1545 7.5214 17.1555 6.57879 16.5361 6.08298L9.27475 0.271184C8.82294 -0.0904298 8.1808 -0.090431 7.72899 0.271183L0.463995 6.08593C-0.154297 6.5808 -0.1547 7.52115 0.463169 8.01655L0.932635 8.39296L7.72865 13.8302Z" fill="#6993FF"/>
<path opacity="0.3" fill-rule="evenodd" clip-rule="evenodd" d="M9.26432 16.5149C8.81258 16.8765 8.17055 16.8765 7.71875 16.515L1.66576 11.6722C1.25749 11.3456 0.660621 11.4176 0.341749 11.832C0.0271204 12.2408 0.103475 12.8273 0.5123 13.142L7.74593 18.7099C8.19057 19.0521 8.80989 19.0522 9.25459 18.71L16.4849 13.1468C16.8972 12.8296 16.974 12.2381 16.6564 11.8261C16.3349 11.409 15.7338 11.3369 15.3227 11.6659L9.26432 16.5149Z" fill="#6993FF"/>
</svg>
