<svg width="16" height="16" viewBox="0 0 16 16" fill="none" xmlns="http://www.w3.org/2000/svg">
<rect width="7.00001" height="6.99226" rx="1.19535" fill="#6993FF"/>
<path opacity="0.3" fill-rule="evenodd" clip-rule="evenodd" d="M8.99999 1.24516C8.99999 0.557478 9.55747 0 10.2452 0H14.7548C15.4425 0 16 0.557477 16 1.24516V5.7471C16 6.43478 15.4425 6.99226 14.7548 6.99226H10.2452C9.55747 6.99226 8.99999 6.43478 8.99999 5.7471V1.24516ZM0 10.2352C0 9.54754 0.557477 8.99006 1.24516 8.99006H5.75485C6.44253 8.99006 7.00001 9.54754 7.00001 10.2352V14.7372C7.00001 15.4248 6.44253 15.9823 5.75485 15.9823H1.24516C0.557476 15.9823 0 15.4248 0 14.7372V10.2352ZM10.2452 8.99006C9.55747 8.99006 8.99999 9.54754 8.99999 10.2352V14.7372C8.99999 15.4248 9.55747 15.9823 10.2452 15.9823H14.7548C15.4425 15.9823 16 15.4248 16 14.7372V10.2352C16 9.54754 15.4425 8.99006 14.7548 8.99006H10.2452Z" fill="#6993FF"/>
</svg>
