<svg width="24" height="24" viewBox="0 0 24 24" fill="none" xmlns="http://www.w3.org/2000/svg">
<g clip-path="url(#clip0_1_165)">
<path d="M16.8191 12.0629L21.009 6.79485C22.401 5.00924 22.1339 2.33779 20.2498 0.875522C18.3799 -0.558672 15.7504 -0.178998 14.3444 1.63473C14.232 1.76132 10.9983 5.81068 10.5764 6.31685C10.5623 6.34501 10.5482 6.35898 10.5482 6.35898V4.22187C10.5482 1.90187 8.6501 0.00378549 6.33011 0.00378549C4.01012 0.00378549 2.11203 1.90187 2.11203 4.22187V19.7819C2.11203 22.1018 4.01012 24 6.33011 24C8.6501 24 10.5482 22.1018 10.5482 19.7819V17.6869C10.6608 17.8275 14.3303 22.3596 14.3444 22.3596C15.7927 24.2015 18.408 24.539 20.2498 23.1048C22.1479 21.6284 22.3868 19.0367 21.009 17.237L16.8191 12.0629Z" fill="#7FE881"/>
<path d="M21.009 17.237C22.3869 19.0367 22.148 21.6284 20.2499 23.1048C18.4081 24.539 15.7927 24.2015 14.3445 22.3596C14.3304 22.3596 10.6609 17.8275 10.5482 17.6869V6.35898C10.5482 6.35898 10.5623 6.34501 10.5764 6.31685C10.9983 5.81068 14.232 1.76132 14.3445 1.63473C15.7505 -0.178998 18.3799 -0.558672 20.2499 0.875522C22.1339 2.33774 22.4009 5.00924 21.009 6.79485L16.8191 12.0629L21.009 17.237Z" fill="#5BC980"/>
</g>
<defs>
<clipPath id="clip0_1_165">
<rect width="23.1101" height="23.1101" fill="white" transform="scale(1.03851)"/>
</clipPath>
</defs>
</svg>
